<svg width="16" height="16" viewBox="0 0 16 16" fill="none" xmlns="http://www.w3.org/2000/svg">
<g clip-path="url(#clip0_5635_23024)">
<path fill-rule="evenodd" clip-rule="evenodd" d="M2.5 0.75C1.5335 0.75 0.75 1.5335 0.75 2.5V13.5C0.75 14.4665 1.5335 15.25 2.5 15.25H5.5V13.75H2.5C2.36193 13.75 2.25 13.6381 2.25 13.5V2.5C2.25 2.36193 2.36193 2.25 2.5 2.25H10.8137C10.9518 2.25 11.0637 2.36193 11.0637 2.5V5.04712H12.5637V2.5C12.5637 1.5335 11.7802 0.75 10.8137 0.75H2.5Z" fill="#253453" fill-opacity="0.7"/>
<circle cx="11" cy="11" r="4" stroke="#253453" stroke-opacity="0.7" stroke-width="1.35" stroke-linecap="round" stroke-linejoin="round"/>
<path d="M11 9V11L12.3759 12.3294" stroke="#253453" stroke-opacity="0.7" stroke-width="1.35" stroke-linecap="round" stroke-linejoin="round"/>
</g>
<defs>
<clipPath id="clip0_5635_23024">
<rect width="16" height="16" fill="white"/>
</clipPath>
</defs>
</svg>
