<svg width="16" height="16" viewBox="0 0 16 16" fill="none" xmlns="http://www.w3.org/2000/svg">
<path fill-rule="evenodd" clip-rule="evenodd" d="M0.75 3C0.75 2.0335 1.5335 1.25 2.5 1.25H13.5C14.4665 1.25 15.25 2.0335 15.25 3V7H13.75V3C13.75 2.86193 13.6381 2.75 13.5 2.75H2.5C2.36193 2.75 2.25 2.86193 2.25 3V10.25C2.25 10.3881 2.36193 10.5 2.5 10.5H6.99995V12H2.5C1.5335 12 0.75 11.2165 0.75 10.25V3ZM6.99995 13.25H1.50005C1.08584 13.25 0.75005 13.5858 0.75005 14C0.75005 14.4142 1.08584 14.75 1.50005 14.75H6.99995V13.25Z" fill="#253453" fill-opacity="0.7"/>
<circle cx="12" cy="12" r="4" fill="#00A147"/>
<path d="M10 12L11.5 13.5L14 11" stroke="white"/>
</svg>
