<svg width="16" height="16" viewBox="0 0 16 16" fill="none" xmlns="http://www.w3.org/2000/svg">
<path d="M0 3C0 1.34315 1.34315 0 3 0H13C14.6569 0 16 1.34315 16 3V13C16 14.6569 14.6569 16 13 16H3C1.34315 16 0 14.6569 0 13V3Z" fill="#EB2F3B"/>
<path d="M13 0C14.6569 0 16 1.34315 16 3L16 13C16 14.6569 14.6569 16 13 16H12V0H13Z" fill="#FF4F5A"/>
<path d="M16 13C16 14.6569 14.6569 16 13 16L3 16C1.34315 16 -1.16135e-07 14.6569 -4.37114e-08 13L0 12L16 12L16 13Z" fill="#CE1E29"/>
<path fill-rule="evenodd" clip-rule="evenodd" d="M12 16H13C14.6569 16 16 14.6569 16 13L16 12H12V16Z" fill="#EB2F3B"/>
<g clip-path="url(#clip0_1941_13497)">
<path fill-rule="evenodd" clip-rule="evenodd" d="M5.25 2.25H7.8125C9.08966 2.25 10.125 3.28534 10.125 4.5625C10.125 5.83966 9.08966 6.875 7.8125 6.875H6.5V10H4.3125C3.10438 10 2.125 9.02062 2.125 7.8125C2.125 6.60438 3.10438 5.625 4.3125 5.625H5.25V2.25ZM5.25 6.875H4.3125C3.79473 6.875 3.375 7.29473 3.375 7.8125C3.375 8.33027 3.79473 8.75 4.3125 8.75H5.25V6.875ZM6.5 5.625H7.8125C8.3993 5.625 8.875 5.1493 8.875 4.5625C8.875 3.9757 8.3993 3.5 7.8125 3.5H6.5V5.625Z" fill="white"/>
</g>
<defs>
<clipPath id="clip0_1941_13497">
<rect width="8.25" height="8.25" fill="white" transform="translate(2 2)"/>
</clipPath>
</defs>
</svg>
