<svg width="16" height="16" viewBox="0 0 16 16" fill="none" xmlns="http://www.w3.org/2000/svg">
<path fill-rule="evenodd" clip-rule="evenodd" d="M7.75208 1C5.311 1 3.27927 2.74957 2.84145 5.06359C1.17732 5.7242 0 7.34817 0 9.24872C0 11.4694 1.60802 13.6314 3.72327 14L7 14.0027V12.567H4.48997L4.47875 12.5669C2.83163 12.5549 1.5 10.8988 1.5 9.24872C1.5 7.86382 2.43867 6.69623 3.71579 6.35108L4.22213 6.21423L4.26733 5.69168C4.42198 3.90363 5.92351 2.5 7.75208 2.5C9.41513 2.5 10.8087 3.66133 11.1629 5.21799L11.2751 5.71113L11.7743 5.79197C12.8025 5.95843 13.669 6.60799 14.1338 7.5H15.7583C15.2592 5.99885 14.0312 4.83088 12.4938 4.41471C11.8315 2.4306 9.95964 1 7.75208 1Z" fill="#253453" fill-opacity="0.7"/>
<circle cx="12" cy="12" r="4" fill="#00A147"/>
<path d="M10 12L11.5 13.5L14 11" stroke="white"/>
</svg>
