<svg width="80" height="16" viewBox="0 0 80 16" fill="none" xmlns="http://www.w3.org/2000/svg">
<path d="M0 8.4553V2.38186e-05L24.0741 0H74.6667C77.6122 0 80 2.38781 80 5.33333V10.6667C80 13.6122 77.6122 16 74.6667 16H5.33334C2.38782 16 0 13.6122 0 10.6667V8.4553Z" fill="#D6E6FF"/>
<path d="M67.3653 12.0445L67.3086 4.36475L72.2685 4.32814L72.2774 5.53344L68.6028 5.56056L68.6168 7.45384L71.6513 7.43145L71.6602 8.63675L68.6257 8.65914L68.6417 10.8298L72.3162 10.8026L72.3251 12.0079L67.3653 12.0445Z" fill="#1E5FC7"/>
<path d="M61.1255 12.0904L61.0688 4.41064L66.0287 4.37404L66.0376 5.57934L62.363 5.60646L62.377 7.49974L65.4116 7.47735L65.4205 8.68265L62.3859 8.70504L62.4019 10.8756L66.0765 10.8485L66.0854 12.0538L61.1255 12.0904Z" fill="#1E5FC7"/>
<path d="M54.084 12.1427L54.0273 4.46289L57.2006 4.43947C57.2753 4.43892 57.3713 4.44177 57.4887 4.44801C57.606 4.4507 57.7145 4.46057 57.8142 4.47761C58.2592 4.54188 58.6265 4.68673 58.9161 4.91216C59.2093 5.13755 59.4266 5.42396 59.5678 5.77137C59.7126 6.1152 59.7865 6.49867 59.7896 6.92177C59.7943 7.54753 59.64 8.08735 59.3269 8.54122C59.0138 8.99155 58.5305 9.27245 57.8771 9.38395L57.3281 9.436L55.3495 9.4506L55.3693 12.1332L54.084 12.1427ZM58.4946 12.1101L56.9569 8.99606L58.2614 8.69843L59.9505 12.0994L58.4946 12.1101ZM55.3407 8.25064L57.1753 8.2371C57.2464 8.23657 57.3264 8.23242 57.4152 8.22466C57.504 8.21689 57.5857 8.20207 57.6602 8.18018C57.8731 8.12528 58.0396 8.02982 58.1594 7.89382C58.2829 7.7578 58.3689 7.60427 58.4174 7.43324C58.4695 7.26218 58.4949 7.09488 58.4937 6.93133C58.4925 6.76778 58.4646 6.60087 58.41 6.4306C58.3589 6.25675 58.2707 6.10273 58.1452 5.96854C58.0233 5.83433 57.8555 5.74134 57.6418 5.68958C57.567 5.6688 57.4851 5.65696 57.3962 5.65406C57.3073 5.64761 57.2273 5.64464 57.1562 5.64517L55.3215 5.65871L55.3407 8.25064Z" fill="#1E5FC7"/>
<path d="M48.5005 12.1837L48.4438 4.50391L53.0677 4.46978L53.0772 5.75508L49.7386 5.77972L49.7528 7.69433L52.4514 7.67442L52.4608 8.95438L49.7622 8.9743L49.7858 12.1742L48.5005 12.1837Z" fill="#1E5FC7"/>
<path d="M38.897 12.2545L38.8403 4.57471L41.2883 4.55664C41.3523 4.55617 41.4785 4.55701 41.667 4.55918C41.859 4.56132 42.044 4.5724 42.2219 4.59242C42.8305 4.66615 43.3458 4.87924 43.768 5.23169C44.1937 5.58056 44.517 6.02796 44.7379 6.5739C44.9588 7.11984 45.0717 7.71814 45.0765 8.36879C45.0813 9.01944 44.9773 9.61933 44.7644 10.1685C44.5516 10.7176 44.2349 11.1715 43.8145 11.5302C43.3975 11.8853 42.8853 12.1042 42.2779 12.1869C42.1039 12.2095 41.9209 12.2233 41.7289 12.2283C41.5369 12.2332 41.4089 12.236 41.3449 12.2364L38.897 12.2545ZM40.1947 11.0342L41.336 11.0258C41.4427 11.025 41.5778 11.0205 41.7413 11.0121C41.9083 11.0038 42.0557 10.9867 42.1836 10.9609C42.5457 10.8906 42.8396 10.7267 43.0653 10.469C43.2909 10.2113 43.4558 9.89901 43.5597 9.53201C43.6672 9.16499 43.7195 8.78059 43.7165 8.37882C43.7135 7.96284 43.6555 7.57214 43.5426 7.20674C43.4296 6.84134 43.2567 6.53506 43.0238 6.28788C42.7944 6.04068 42.5017 5.88461 42.1456 5.81968C42.0174 5.79218 41.8697 5.77727 41.7026 5.77495C41.539 5.76905 41.4039 5.76649 41.2972 5.76727L40.1559 5.7757L40.1947 11.0342Z" fill="#1E5FC7"/>
<path d="M32.6578 12.3009L32.6011 4.62109L37.5609 4.58449L37.5698 5.78979L33.8953 5.81691L33.9092 7.71019L36.9438 7.6878L36.9527 8.8931L33.9181 8.91549L33.9342 11.0861L37.6087 11.059L37.6176 12.2643L32.6578 12.3009Z" fill="#1E5FC7"/>
<path d="M28.0341 12.3348L27.9863 5.8603L25.5011 5.87864L25.4922 4.67334L31.748 4.62717L31.7569 5.83247L29.2716 5.85081L29.3194 12.3253L28.0341 12.3348Z" fill="#1E5FC7"/>
<path d="M23.3062 12.3697L23.2495 4.68994L24.5348 4.68046L24.5915 12.3602L23.3062 12.3697Z" fill="#1E5FC7"/>
<path d="M14.0747 12.4376L14.0181 4.75781L15.1754 4.74927L17.8714 10.1695L20.4872 4.71007L21.6445 4.70153L21.7012 12.3813L20.5012 12.3902L20.4649 7.46764L18.144 12.4076L17.632 12.4114L15.2437 7.50618L15.28 12.4287L14.0747 12.4376Z" fill="#1E5FC7"/>
<path d="M11.1919 12.4591L11.1353 4.7793L12.4206 4.76981L12.4772 12.4496L11.1919 12.4591Z" fill="#1E5FC7"/>
<path d="M5.50443 12.5006L5.44775 4.8208L6.73305 4.81132L6.78084 11.2858L10.1727 11.2608L10.1816 12.4661L5.50443 12.5006Z" fill="#1E5FC7"/>
</svg>
