<svg width="32" height="32" viewBox="0 0 32 32" fill="none" xmlns="http://www.w3.org/2000/svg">
<path d="M0 6C0 2.68629 2.68629 0 6 0H26C29.3137 0 32 2.68629 32 6V26C32 29.3137 29.3137 32 26 32H6C2.68629 32 0 29.3137 0 26V6Z" fill="#EB2F3B"/>
<path d="M26 0C29.3137 0 32 2.68629 32 6L32 26C32 29.3137 29.3137 32 26 32H24V0H26Z" fill="#FF4F5A"/>
<path d="M32 26C32 29.3137 29.3137 32 26 32L6 32C2.68629 32 -2.3227e-07 29.3137 -8.74228e-08 26L0 24L32 24L32 26Z" fill="#CE1E29"/>
<path fill-rule="evenodd" clip-rule="evenodd" d="M24 32H26C29.3137 32 32 29.3137 32 26L32 24H24V32Z" fill="#EB2F3B"/>
<g clip-path="url(#clip0_6827_138215)">
<path fill-rule="evenodd" clip-rule="evenodd" d="M10.5 4.5H15.625C18.1793 4.5 20.25 6.57068 20.25 9.125C20.25 11.6793 18.1793 13.75 15.625 13.75H13V20H8.625C6.20875 20 4.25 18.0412 4.25 15.625C4.25 13.2088 6.20875 11.25 8.625 11.25H10.5V4.5ZM10.5 13.75H8.625C7.58947 13.75 6.75 14.5895 6.75 15.625C6.75 16.6605 7.58947 17.5 8.625 17.5H10.5V13.75ZM13 11.25H15.625C16.7986 11.25 17.75 10.2986 17.75 9.125C17.75 7.95139 16.7986 7 15.625 7H13V11.25Z" fill="white"/>
</g>
<defs>
<clipPath id="clip0_6827_138215">
<rect width="16.5" height="16.5" fill="white" transform="translate(4 4)"/>
</clipPath>
</defs>
</svg>
