<svg width="16" height="16" viewBox="0 0 16 16" fill="none" xmlns="http://www.w3.org/2000/svg">
<g clip-path="url(#clip0_5635_19759)">
<path fill-rule="evenodd" clip-rule="evenodd" d="M14.5658 0.703012C13.98 0.117226 13.0303 0.117224 12.4445 0.703011L11.0249 2.12262L7.01847 6.12903C6.16803 6.97947 5.54252 8.02812 5.19829 9.1805L5.06069 9.64117C4.83306 10.4032 5.54302 11.1132 6.30507 10.8855L6.76573 10.7479C7.91812 10.4037 8.96677 9.7782 9.81721 8.92776L13.8236 4.92135L15.2432 3.50175C15.829 2.91596 15.829 1.96621 15.2432 1.38043L14.5658 0.703012ZM13.5052 1.76367L14.1826 2.44109L13.2933 3.33036L12.6159 2.65295L13.5052 1.76367ZM11.5552 3.71361L12.2326 4.39102L8.75655 7.8671C8.19625 8.4274 7.52747 8.86459 6.79317 9.15307C7.08164 8.41876 7.51884 7.74999 8.07913 7.18969L11.5552 3.71361ZM2.25 2.49698C2.25 2.35891 2.36193 2.24698 2.5 2.24698H8.25024C8.66446 2.24698 9.00024 1.91119 9.00024 1.49698C9.00024 1.08276 8.66446 0.746978 8.25024 0.746978H2.5C1.5335 0.746978 0.75 1.53048 0.75 2.49698V13.4999C0.75 14.4664 1.5335 15.2499 2.5 15.2499H13.5C14.4665 15.2499 15.25 14.4664 15.25 13.4999V7.45784C15.25 7.04363 14.9142 6.70784 14.5 6.70784C14.0858 6.70784 13.75 7.04363 13.75 7.45784V13.4999C13.75 13.638 13.6381 13.7499 13.5 13.7499H2.5C2.36193 13.7499 2.25 13.638 2.25 13.4999V2.49698Z" fill="#253453" fill-opacity="0.7"/>
</g>
<defs>
<clipPath id="clip0_5635_19759">
<rect width="16" height="16" fill="white"/>
</clipPath>
</defs>
</svg>
