<?xml version="1.0" encoding="UTF-8"?>
<svg width="64px" height="64px" viewBox="0 0 64 64" version="1.1" xmlns="http://www.w3.org/2000/svg" xmlns:xlink="http://www.w3.org/1999/xlink">
    <title>loading</title>
    <g id="页面-1" stroke="none" stroke-width="1" fill="none" fill-rule="evenodd">
        <g id="loading" fill-rule="nonzero">
            <rect id="#64" fill-opacity="0" fill="#B6312E" x="0" y="0" width="64" height="64"></rect>
            <path d="M32,0 C49.673112,0 64,14.326888 64,32 C64,49.673112 49.673112,64 32,64 C14.326888,64 0,49.673112 0,32 C0,14.326888 14.326888,0 32,0 Z M32,8 C18.745166,8 8,18.745166 8,32 C8,45.254834 18.745166,56 32,56 C45.254834,56 56,45.254834 56,32 C56,18.745166 45.254834,8 32,8 Z" id="路径" fill-opacity="0.2" fill="#FFFFFF"></path>
            <path d="M32,2.13162821e-14 C49.673112,2.13162821e-14 64,14.326888 64,32 C64,41.9549906 59.4196349,51.1624958 51.7378093,57.1892127 C49.9997336,58.5528066 47.4853337,58.249229 46.1217399,56.5111534 C44.758146,54.7730777 45.0617236,52.2586778 46.7997992,50.895084 C52.5687264,46.3691167 56,39.4715292 56,32 C56,18.745166 45.254834,8 32,8 C29.790861,8 28,6.209139 28,4 C28,1.790861 29.790861,2.13162821e-14 32,2.13162821e-14 Z" id="路径" fill="#FFFFFF"></path>
        </g>
    </g>
</svg>